# xmcd CD database file
#
# Track frame offsets:
#	150
#	19655
#	37207
#	56825
#	76026
#	90603
#	113735
#	127885
#	155023
#	167359
#	181863
#	198097
#	229436
#
# Disc length: 3513 seconds
#
# Revision: 0
# Processed by: cddbd v1.5.1PL0 Copyright (c) Steve Scherf et al.
# Submitted via: Feurio! 1.63 - http://www.feurio.com
#
DISCID=9c0db70d
DTITLE=Stan Webb - Webb
DYEAR=2001
DGENRE=blues
TTITLE0=Koko Road
TTITLE1=Strange Situations
TTITLE2=Guiding Light
TTITLE3=She Loves You
TTITLE4=One And One Is Two
TTITLE5=Pass The Time Away
TTITLE6=The Power Of Love
TTITLE7=The House That Love Lives In
TTITLE8=Took Me For A Ride
TTITLE9=The Paper Sellers Dream
TTITLE10=I Know
TTITLE11=Misty Rivers
TTITLE12=The Last Time
EXTD=
EXTT0=
EXTT1=
EXTT2=
EXTT3=
EXTT4=
EXTT5=
EXTT6=
EXTT7=
EXTT8=
EXTT9=
EXTT10=
EXTT11=
EXTT12=
PLAYORDER=
